HIERARCHY
ROOT Hip
{
	OFFSET -0.155111 0.102342 0.178268
	CHANNELS 6 Xposition Yposition Zposition Xrotation Yrotation Zrotation
	JOINT LowerSpine
	{
		OFFSET -0.009069 0.154692 0.259715
		CHANNELS 6 Xposition Yposition Zposition Xrotation Yrotation Zrotation
		JOINT MiddleSpine
		{
			OFFSET -0.008277 -0.011152 0.237010
			CHANNELS 3 Xrotation Yrotation Zrotation
			JOINT Chest
			{
				OFFSET -0.010241 0.058786 0.293270
				CHANNELS 3 Xrotation Yrotation Zrotation
				JOINT Neck
				{
					OFFSET -0.023078 0.012376 0.660876
					CHANNELS 6 Xposition Yposition Zposition Xrotation Yrotation Zrotation
					JOINT Head
					{
						OFFSET -0.013035 -0.101573 0.373206
						CHANNELS 3 Xrotation Yrotation Zrotation
						End Site
						{
							OFFSET -0.001871 -0.001601 0.053597
						}
					}
				}
				JOINT LClavicle
				{
					OFFSET 0.037777 -0.196776 0.639876
					CHANNELS 6 Xposition Yposition Zposition Xrotation Yrotation Zrotation
					JOINT LShoulder
					{
						OFFSET 0.347619 0.148114 0.103729
						CHANNELS 3 Xrotation Yrotation Zrotation
						JOINT LForearm
						{
							OFFSET 0.828098 0.007179 0.025978
							CHANNELS 3 Xrotation Yrotation Zrotation
							JOINT LHand
							{
								OFFSET 0.690652 0.004141 0.026124
								CHANNELS 3 Xrotation Yrotation Zrotation
								JOINT LFinger1
								{
									OFFSET 0.266887 -0.074399 0.032761
									CHANNELS 6 Xposition Yposition Zposition Xrotation Yrotation Zrotation
									JOINT LFinger11
									{
										OFFSET 0.100987 -0.017654 -0.020921
										CHANNELS 3 Xrotation Yrotation Zrotation
										JOINT LFinger12
										{
											OFFSET 0.068942 -0.012057 -0.014285
											CHANNELS 3 Xrotation Yrotation Zrotation
											End Site
											{
												OFFSET 0.051300 -0.008241 -0.013382
											}
										}
									}
								}
								JOINT LFinger2
								{
									OFFSET 0.270757 -0.006476 0.036525
									CHANNELS 6 Xposition Yposition Zposition Xrotation Yrotation Zrotation
									JOINT LFinger21
									{
										OFFSET 0.123798 0.000731 0.004667
										CHANNELS 3 Xrotation Yrotation Zrotation
										JOINT LFinger22
										{
											OFFSET 0.068621 0.000417 0.002606
											CHANNELS 3 Xrotation Yrotation Zrotation
											End Site
											{
												OFFSET 0.053619 -0.000073 -0.001910
											}
										}
									}
								}
								JOINT LFinger3
								{
									OFFSET 0.256863 0.060956 0.027035
									CHANNELS 6 Xposition Yposition Zposition Xrotation Yrotation Zrotation
									JOINT LFinger31
									{
										OFFSET 0.112545 0.007039 -0.001766
										CHANNELS 3 Xrotation Yrotation Zrotation
										JOINT LFinger32
										{
											OFFSET 0.064132 0.004024 -0.000985
											CHANNELS 3 Xrotation Yrotation Zrotation
											End Site
											{
												OFFSET 0.053389 0.002514 -0.004680
											}
										}
									}
								}
								JOINT LFinger4
								{
									OFFSET 0.239578 0.105269 -0.009814
									CHANNELS 6 Xposition Yposition Zposition Xrotation Yrotation Zrotation
									JOINT LFinger41
									{
										OFFSET 0.069607 0.019087 -0.011998
										CHANNELS 3 Xrotation Yrotation Zrotation
										JOINT LFinger42
										{
											OFFSET 0.051043 0.014006 -0.008782
											CHANNELS 3 Xrotation Yrotation Zrotation
											End Site
											{
												OFFSET 0.050968 0.011591 -0.012107
											}
										}
									}
								}
								JOINT LFinger0
								{
									OFFSET 0.056842 -0.042008 -0.039982
									CHANNELS 6 Xposition Yposition Zposition Xrotation Yrotation Zrotation
									JOINT LFinger01
									{
										OFFSET 0.104288 -0.077784 -0.030259
										CHANNELS 3 Xrotation Yrotation Zrotation
										JOINT LFinger02
										{
											OFFSET 0.068741 -0.048944 -0.021924
											CHANNELS 3 Xrotation Yrotation Zrotation
											End Site
											{
												OFFSET 0.043071 -0.029159 -0.013165
											}
										}
									}
								}
							}
						}
					}
				}
				JOINT RClavicle
				{
					OFFSET -0.082320 -0.196776 0.635682
					CHANNELS 6 Xposition Yposition Zposition Xrotation Yrotation Zrotation
					JOINT RShoulder
					{
						OFFSET -0.354070 0.148140 0.079243
						CHANNELS 3 Xrotation Yrotation Zrotation
						JOINT RForearm
						{
							OFFSET -0.827894 0.007179 -0.031849
							CHANNELS 3 Xrotation Yrotation Zrotation
							JOINT RHand
							{
								OFFSET -0.690793 0.004141 -0.022116
								CHANNELS 3 Xrotation Yrotation Zrotation
								JOINT RFinger1
								{
									OFFSET -0.268525 -0.074399 0.014068
									CHANNELS 6 Xposition Yposition Zposition Xrotation Yrotation Zrotation
									JOINT RFinger11
									{
										OFFSET -0.099282 -0.017654 -0.027915
										CHANNELS 3 Xrotation Yrotation Zrotation
										JOINT RFinger12
										{
											OFFSET -0.067777 -0.012057 -0.019065
											CHANNELS 3 Xrotation Yrotation Zrotation
											End Site
											{
												OFFSET -0.050241 -0.008241 -0.016927
											}
										}
									}
								}
								JOINT RFinger2
								{
									OFFSET -0.272645 -0.006479 0.017549
									CHANNELS 6 Xposition Yposition Zposition Xrotation Yrotation Zrotation
									JOINT RFinger21
									{
										OFFSET -0.123823 0.000731 -0.003976
										CHANNELS 3 Xrotation Yrotation Zrotation
										JOINT RFinger22
										{
											OFFSET -0.068635 0.000420 -0.002187
											CHANNELS 3 Xrotation Yrotation Zrotation
											End Site
											{
												OFFSET -0.053355 -0.000073 -0.005646
											}
										}
									}
								}
								JOINT RFinger3
								{
									OFFSET -0.258124 0.060956 0.009055
									CHANNELS 6 Xposition Yposition Zposition Xrotation Yrotation Zrotation
									JOINT RFinger31
									{
										OFFSET -0.112148 0.007039 -0.009612
										CHANNELS 3 Xrotation Yrotation Zrotation
										JOINT RFinger32
										{
											OFFSET -0.063910 0.004024 -0.005456
											CHANNELS 3 Xrotation Yrotation Zrotation
											End Site
											{
												OFFSET -0.052933 0.002514 -0.008393
											}
										}
									}
								}
								JOINT RFinger4
								{
									OFFSET -0.238310 0.105269 -0.026502
									CHANNELS 6 Xposition Yposition Zposition Xrotation Yrotation Zrotation
									JOINT RFinger41
									{
										OFFSET -0.068601 0.019088 -0.016824
										CHANNELS 3 Xrotation Yrotation Zrotation
										JOINT RFinger42
										{
											OFFSET -0.050306 0.014006 -0.012319
											CHANNELS 3 Xrotation Yrotation Zrotation
											End Site
											{
												OFFSET -0.049999 0.011591 -0.015633
											}
										}
									}
								}
								JOINT RFinger0
								{
									OFFSET -0.053914 -0.042006 -0.043847
									CHANNELS 6 Xposition Yposition Zposition Xrotation Yrotation Zrotation
									JOINT RFinger01
									{
										OFFSET -0.101924 -0.077787 -0.037465
										CHANNELS 3 Xrotation Yrotation Zrotation
										JOINT RFinger02
										{
											OFFSET -0.067044 -0.048944 -0.026663
											CHANNELS 3 Xrotation Yrotation Zrotation
											End Site
											{
												OFFSET -0.042047 -0.029159 -0.016137
											}
										}
									}
								}
							}
						}
					}
				}
			}
		}
	}
	JOINT RThigh
	{
		OFFSET -0.311173 0.025206 0.106674
		CHANNELS 6 Xposition Yposition Zposition Xrotation Yrotation Zrotation
		JOINT RShin
		{
			OFFSET 0.019967 0.000000 -1.209208
			CHANNELS 3 Xrotation Yrotation Zrotation
			JOINT RFoot
			{
				OFFSET 0.041437 0.000000 -1.186608
				CHANNELS 3 Xrotation Yrotation Zrotation
				JOINT RToe
				{
					OFFSET 0.004554 -0.272888 -0.130418
					CHANNELS 3 Xrotation Yrotation Zrotation
					End Site
					{
						OFFSET 0.000000 -0.053653 0.000000
					}
				}
			}
		}
	}
	JOINT LThigh
	{
		OFFSET 0.302971 0.025206 0.128128
		CHANNELS 6 Xposition Yposition Zposition Xrotation Yrotation Zrotation
		JOINT LShin
		{
			OFFSET 0.064432 0.000000 -1.207664
			CHANNELS 3 Xrotation Yrotation Zrotation
			JOINT LFoot
			{
				OFFSET 0.041437 0.000000 -1.186609
				CHANNELS 3 Xrotation Yrotation Zrotation
				JOINT LToe
				{
					OFFSET 0.004554 -0.272891 -0.130420
					CHANNELS 3 Xrotation Yrotation Zrotation
					End Site
					{
						OFFSET 0.000000 -0.053653 0.000000
					}
				}
			}
		}
	}
}
MOTION
Frames: 4
Frame Time: 0.041667
1.176764 -0.570795 2.180744 25.826907 -0.522816 -12.231344 -0.009070 0.154691 0.259715 0.000006 -0.000016 0.000002 -0.695875 5.421733 7.712393 -3.596786 16.866097 25.131654 -0.023078 0.012376 0.660877 -28.618665 -1.239089 -1.798856 -1.998654 0.565899 -0.044257 0.037777 -0.196775 0.639876 0.067217 13.467304 0.010982 40.658719 49.729347 -46.239462 1.021228 -0.239601 -27.811904 0.000003 0.000000 0.000007 0.266886 -0.074399 0.032762 -0.000012 0.000008 -0.000001 -0.000002 -0.000001 0.000007 0.000006 -0.000003 0.000007 0.270756 -0.006476 0.036525 -0.000010 0.000018 -0.000008 -0.000006 0.000014 -0.000002 -0.000002 0.000002 -0.000004 0.256864 0.060956 0.027035 -0.000006 0.000022 -0.000007 0.000001 0.000002 -0.000006 -0.000002 0.000002 0.000002 0.239578 0.105269 -0.009814 -0.000010 0.000018 -0.000005 -0.000005 0.000012 -0.000003 0.000004 -0.000007 0.000013 0.056842 -0.042008 -0.039982 -0.000016 0.000018 -0.000017 -0.000011 0.000025 -0.000032 0.000008 0.000000 0.000027 -0.082320 -0.196775 0.635682 0.200663 6.970987 0.818364 -21.779820 -4.267541 97.355447 -0.223140 -0.016359 7.021183 -69.945911 -6.461553 -10.097915 -0.268525 -0.074399 0.014068 -0.000006 -0.000007 0.000007 -0.000001 0.000002 0.000006 -0.000000 -0.000012 0.000004 -0.272645 -0.006479 0.017549 -0.000003 -0.000010 -0.000001 -0.000002 0.000011 -0.000005 -0.000001 0.000003 -0.000003 -0.258124 0.060956 0.009055 -0.000000 -0.000004 -0.000003 -0.000001 0.000001 -0.000001 0.000003 0.000002 -0.000004 -0.238310 0.105269 -0.026502 -0.000000 -0.000006 0.000002 -0.000002 -0.000006 0.000000 0.000003 -0.000004 -0.000006 -0.053914 -0.042005 -0.043847 -0.000007 -0.000017 0.000008 -0.000001 0.000011 0.000004 -0.000001 0.000006 -0.000009 -0.295231 0.001864 0.022416 -35.604892 -31.969011 -12.133808 0.631811 0.000138 0.022063 -1.719000 0.470588 -1.009262 -0.000000 0.000038 -0.000005 0.302971 0.025206 0.128128 -63.636695 5.688684 20.152448 67.654533 1.240385 1.850904 3.062584 2.472042 -5.434916 -24.981381 0.187172 -0.845021 
1.176764 -0.570795 2.180744 25.826907 -0.522816 -12.231344 -0.009070 0.154691 0.259715 0.000006 -0.000016 0.000002 -0.695875 5.421733 7.712393 -3.596786 16.866097 25.131654 -0.023078 0.012376 0.660877 -28.618665 -1.239089 -1.798856 -1.998654 0.565899 -0.044257 0.037777 -0.196775 0.639876 0.067217 13.467304 0.010982 40.658719 49.729347 -46.239462 1.021228 -0.239601 -27.811904 0.000003 0.000000 0.000007 0.266886 -0.074399 0.032762 -0.000012 0.000008 -0.000001 -0.000002 -0.000001 0.000007 0.000006 -0.000003 0.000007 0.270756 -0.006476 0.036525 -0.000010 0.000018 -0.000008 -0.000006 0.000014 -0.000002 -0.000002 0.000002 -0.000004 0.256864 0.060956 0.027035 -0.000006 0.000022 -0.000007 0.000001 0.000002 -0.000006 -0.000002 0.000002 0.000002 0.239578 0.105269 -0.009814 -0.000010 0.000018 -0.000005 -0.000005 0.000012 -0.000003 0.000004 -0.000007 0.000013 0.056842 -0.042008 -0.039982 -0.000016 0.000018 -0.000017 -0.000011 0.000025 -0.000032 0.000008 0.000000 0.000027 -0.082320 -0.196775 0.635682 0.200663 6.970987 0.818364 -21.779820 -4.267541 97.355447 -0.223140 -0.016359 7.021183 -69.945911 -6.461553 -10.097915 -0.268525 -0.074399 0.014068 -0.000006 -0.000007 0.000007 -0.000001 0.000002 0.000006 -0.000000 -0.000012 0.000004 -0.272645 -0.006479 0.017549 -0.000003 -0.000010 -0.000001 -0.000002 0.000011 -0.000005 -0.000001 0.000003 -0.000003 -0.258124 0.060956 0.009055 -0.000000 -0.000004 -0.000003 -0.000001 0.000001 -0.000001 0.000003 0.000002 -0.000004 -0.238310 0.105269 -0.026502 -0.000000 -0.000006 0.000002 -0.000002 -0.000006 0.000000 0.000003 -0.000004 -0.000006 -0.053914 -0.042005 -0.043847 -0.000007 -0.000017 0.000008 -0.000001 0.000011 0.000004 -0.000001 0.000006 -0.000009 -0.295231 0.001864 0.022416 -35.604892 -31.969011 -12.133808 0.631811 0.000138 0.022063 -1.719000 0.470588 -1.009262 -0.000000 0.000038 -0.000005 0.302971 0.025206 0.128128 -63.636695 5.688684 20.152448 67.654533 1.240385 1.850904 3.062584 2.472042 -5.434916 -24.981381 0.187172 -0.845021 
1.177915 -0.567645 2.177955 25.816035 -0.776929 -12.904480 -0.009070 0.154691 0.259715 0.000003 -0.000016 0.000003 -0.823552 5.455489 7.857439 -3.791951 16.832480 25.423117 -0.023078 0.012376 0.660876 -28.555721 -1.506385 -1.946561 -1.855158 0.670923 -0.034109 0.037777 -0.196775 0.639876 0.029843 13.485103 0.004893 40.023239 50.219820 -45.096566 1.035001 -0.249816 -28.249271 0.000003 0.000001 0.000005 0.266886 -0.074399 0.032762 -0.000010 0.000007 0.000000 -0.000001 -0.000003 0.000013 0.000005 -0.000008 0.000005 0.270756 -0.006476 0.036525 -0.000010 0.000018 -0.000006 -0.000006 0.000015 0.000001 -0.000002 0.000002 -0.000006 0.256864 0.060956 0.027035 -0.000006 0.000020 -0.000006 0.000001 0.000002 -0.000006 -0.000003 0.000002 0.000003 0.239578 0.105269 -0.009814 -0.000010 0.000018 -0.000003 -0.000004 0.000011 -0.000006 0.000001 -0.000006 0.000013 0.056842 -0.042008 -0.039982 -0.000013 0.000017 -0.000017 -0.000009 0.000028 -0.000036 0.000005 0.000003 0.000026 -0.082320 -0.196775 0.635682 0.089051 6.727400 0.363508 -22.700656 2.278581 96.555140 -0.079607 -0.002948 2.580374 -84.983440 -2.440652 -12.106911 -0.268525 -0.074399 0.014068 -0.000011 -0.000013 0.000012 -0.000002 -0.000002 0.000008 -0.000000 -0.000005 0.000006 -0.272645 -0.006479 0.017549 -0.000005 -0.000017 0.000000 0.000001 0.000006 -0.000003 0.000001 0.000001 0.000001 -0.258124 0.060956 0.009055 -0.000008 -0.000008 0.000002 -0.000002 0.000002 -0.000002 0.000000 -0.000001 -0.000007 -0.238310 0.105269 -0.026502 -0.000006 -0.000012 0.000008 -0.000000 -0.000004 0.000001 0.000005 -0.000009 -0.000003 -0.053914 -0.042005 -0.043847 -0.000016 -0.000019 0.000012 0.000001 0.000009 0.000003 -0.000003 0.000005 -0.000010 -0.295231 0.001864 0.022416 -35.308113 -32.222094 -12.273116 0.593781 0.000122 0.020732 -1.984065 0.531353 -1.130690 0.000003 0.000033 -0.000005 0.302971 0.025205 0.128128 -63.678612 5.496225 20.130794 67.752102 1.243543 1.852194 3.496034 2.843784 -6.322118 -25.115657 0.189154 -0.849270 
1.178952 -0.566315 2.177546 25.731080 -1.013047 -13.217262 -0.009070 0.154692 0.259715 0.000002 -0.000016 0.000003 -0.888896 5.489298 7.930300 -3.818276 16.865578 25.511255 -0.023078 0.012376 0.660877 -28.549929 -1.573290 -1.983977 -1.801448 0.729594 -0.029261 0.037777 -0.196775 0.639876 0.027874 13.403864 0.004592 41.016529 49.226782 -45.638289 1.022876 -0.246210 -28.045696 0.000003 -0.000000 0.000005 0.266886 -0.074399 0.032762 -0.000012 0.000006 0.000000 -0.000001 -0.000005 0.000008 0.000006 -0.000007 0.000003 0.270756 -0.006476 0.036525 -0.000009 0.000017 -0.000005 -0.000006 0.000014 0.000001 -0.000002 0.000003 -0.000004 0.256864 0.060956 0.027035 -0.000006 0.000020 -0.000005 0.000001 0.000002 -0.000007 -0.000003 0.000003 0.000002 0.239578 0.105269 -0.009814 -0.000009 0.000017 -0.000001 -0.000006 0.000010 -0.000006 0.000003 -0.000011 0.000011 0.056842 -0.042008 -0.039982 -0.000015 0.000016 -0.000013 -0.000010 0.000023 -0.000029 0.000007 -0.000001 0.000029 -0.082320 -0.196775 0.635682 0.083455 6.637865 0.339535 -22.776926 4.164179 94.780780 -0.005397 -0.000379 0.241546 -91.592195 0.817844 -12.282680 -0.268525 -0.074399 0.014068 -0.000013 -0.000012 0.000007 -0.000001 0.000003 0.000004 -0.000000 -0.000001 0.000003 -0.272645 -0.006479 0.017549 -0.000008 -0.000015 0.000002 0.000002 0.000011 -0.000006 -0.000000 -0.000003 -0.000001 -0.258125 0.060956 0.009055 -0.000005 -0.000005 0.000002 0.000000 0.000002 -0.000002 0.000000 -0.000004 0.000001 -0.238310 0.105269 -0.026502 -0.000007 -0.000010 0.000006 -0.000004 -0.000000 -0.000002 0.000001 -0.000007 -0.000006 -0.053914 -0.042005 -0.043847 -0.000012 -0.000018 0.000009 -0.000003 0.000009 0.000006 0.000002 0.000002 -0.000003 -0.295232 0.001864 0.022416 -35.097757 -32.212641 -12.248415 0.638371 0.000141 0.022288 -2.111601 0.581171 -1.231798 -0.000001 0.000035 -0.000005 0.302971 0.025206 0.128129 -63.647951 5.478115 20.176640 67.696785 1.241755 1.851461 3.696257 3.092013 -6.907647 -24.975253 0.187082 -0.844828 
